<svg id="Capa_1" data-name="Capa 1" xmlns="http://www.w3.org/2000/svg" viewBox="0 0 754.14 534.16"><defs><style>.cls-1{fill:#ea0f0f;}</style></defs><title>logo</title><path class="cls-1" d="M722.42,135.54c-29.38-30.17-65-31-68.92-31H539.34l1.14,229.37-76.09-.4-1.5.5c-4.32-.28-18.7-2.14-48.41-14.14-29.24-11.81-29-61.92-29-64.12l0-.4V168.5h75v-64h-75V5.5h-64v99H91.82c-6.58-.1-39.82.63-64,24.78C16.56,140.53,3.38,161,4.52,194.58c1.16,34.15,15.86,53.62,28,63.94,23.49,20,52.78,19.7,62.26,19l103.43,1,2.4.22,3.13-.64c3.89-.47,12.8-.18,17.45,3.68s6,12.62,6.36,19.26c.54,11.34-1.27,19.88-5.08,24.05-3.52,3.85-9.29,4.38-10.09,4.43L7.92,330l.16,64,204.5-.5h0c5.68,0,33.81-1.23,55.52-23.55,11.65-12,25.16-34.19,23.36-72-1.71-36-17.45-55.89-30.36-66.24-24.34-19.54-54-18.41-64.49-17.26l-102.81-1-1.65-.18-2.47.4c-3.58.26-11.67-.39-15.82-4.05s-5.18-11.37-5.38-17.25C68.2,184,69.69,178,72.92,174.7c4.74-4.89,14-6.12,17.52-6.2H321.5V254a178.21,178.21,0,0,0,6.12,48.53c10.26,37.66,32,64.17,62.9,76.64,35.76,14.44,63.7,20.69,81.65,18.34l68.63.36.7,141.79,64-.32-.7-141.14,60.21.31,1.67-.17c4.42-.44,27.57-3.78,49.91-26.3,26.33-26.55,40.43-67.82,41.9-122.68C759.82,199.79,747.68,161.49,722.42,135.54Zm-510,194h0Zm482.07-81.86c-1.17,43.67-11.75,65.46-20.41,76.05-6,7.27-11.59,9.92-14,10.79l-55.59-.28-.82-165.7H653.5a39.65,39.65,0,0,1,23.06,11.69C689.14,193.11,695.35,216.44,694.51,247.64Z" transform="translate(-4.45 -5.5)"/></svg>